<svg width="266" height="140" viewBox="0 0 266 140" fill="none" xmlns="http://www.w3.org/2000/svg">
<rect width="266" height="140" rx="18" fill="#371B66"/>
<mask id="mask0_30_262" style="mask-type:alpha" maskUnits="userSpaceOnUse" x="0" y="0" width="266" height="140">
<rect width="266" height="140" rx="18" fill="#35145E"/>
</mask>
<g mask="url(#mask0_30_262)">
<ellipse cx="20" cy="137" rx="43" ry="42" fill="#280E55"/>
<ellipse cx="209.5" cy="-52" rx="86.5" ry="86" fill="#48297C"/>
<circle cx="135.5" cy="17.5" r="6.5" fill="#48297C"/>
<path d="M303.084 159.97C303.084 196.101 272.088 225.439 233.792 225.439C195.496 225.439 164.5 196.101 164.5 159.97C164.5 123.838 195.496 94.5 233.792 94.5C272.088 94.5 303.084 123.838 303.084 159.97Z" stroke="#3E226F"/>
<path d="M286.091 159.97C286.091 187.231 262.703 209.377 233.792 209.377C204.881 209.377 181.493 187.231 181.493 159.97C181.493 132.709 204.881 110.562 233.792 110.562C262.703 110.562 286.091 132.709 286.091 159.97Z" stroke="#3E226F"/>
<path d="M269.098 159.97C269.098 178.36 253.318 193.315 233.792 193.315C214.266 193.315 198.485 178.36 198.485 159.97C198.485 141.58 214.266 126.624 233.792 126.624C253.318 126.624 269.098 141.58 269.098 159.97Z" stroke="#3E226F"/>
</g>
<circle cx="226" cy="70" r="11" fill="white" fill-opacity="0.43"/>
<ellipse cx="212.5" cy="70" rx="11.5" ry="11" fill="white" fill-opacity="0.43"/>
<path d="M30.5232 71.6022C30.5232 72.1568 30.3792 72.6795 30.0912 73.1702C29.8138 73.6502 29.3978 74.0502 28.8432 74.3702C28.2992 74.6795 27.6538 74.8608 26.9072 74.9142V76.2102H25.8832V74.8982C24.8165 74.8022 23.9578 74.4822 23.3072 73.9382C22.6565 73.3835 22.3205 72.6368 22.2992 71.6982H24.6992C24.7632 72.4662 25.1578 72.9302 25.8832 73.0902V70.0342C25.1152 69.8422 24.4965 69.6502 24.0272 69.4582C23.5578 69.2662 23.1525 68.9568 22.8112 68.5302C22.4698 68.1035 22.2992 67.5222 22.2992 66.7862C22.2992 65.8582 22.6298 65.1008 23.2912 64.5142C23.9632 63.9275 24.8272 63.5915 25.8832 63.5062V62.2102H26.9072V63.5062C27.9312 63.5915 28.7472 63.9008 29.3552 64.4342C29.9738 64.9675 30.3205 65.7035 30.3952 66.6422H27.9792C27.9472 66.3328 27.8352 66.0662 27.6432 65.8422C27.4618 65.6075 27.2165 65.4422 26.9072 65.3462V68.3702C27.7072 68.5728 28.3365 68.7702 28.7952 68.9622C29.2645 69.1435 29.6698 69.4475 30.0112 69.8742C30.3525 70.2902 30.5232 70.8662 30.5232 71.6022ZM24.6352 66.6742C24.6352 67.0262 24.7418 67.3142 24.9552 67.5382C25.1685 67.7515 25.4778 67.9275 25.8832 68.0662V65.2982C25.4992 65.3515 25.1952 65.4955 24.9712 65.7302C24.7472 65.9648 24.6352 66.2795 24.6352 66.6742ZM26.9072 73.1222C27.3125 73.0475 27.6272 72.8822 27.8512 72.6262C28.0858 72.3702 28.2032 72.0608 28.2032 71.6982C28.2032 71.3462 28.0912 71.0635 27.8672 70.8502C27.6432 70.6368 27.3232 70.4608 26.9072 70.3222V73.1222ZM32.6719 72.5462V70.7862L37.9039 63.2982H40.5119V70.5942H41.9199V72.5462H40.5119V74.8182H38.2719V72.5462H32.6719ZM38.4159 65.6982L35.1359 70.5942H38.4159V65.6982ZM51.186 65.0902H46.002V67.8262C46.226 67.5488 46.546 67.3248 46.962 67.1542C47.378 66.9728 47.8207 66.8822 48.29 66.8822C49.1434 66.8822 49.842 67.0688 50.386 67.4422C50.93 67.8155 51.3247 68.2955 51.57 68.8822C51.8154 69.4582 51.938 70.0768 51.938 70.7382C51.938 71.9648 51.586 72.9515 50.882 73.6982C50.1887 74.4448 49.1967 74.8182 47.906 74.8182C46.69 74.8182 45.7194 74.5142 44.994 73.9062C44.2687 73.2982 43.858 72.5035 43.762 71.5222H45.938C46.034 71.9488 46.2474 72.2902 46.578 72.5462C46.9194 72.8022 47.3514 72.9302 47.874 72.9302C48.5034 72.9302 48.978 72.7328 49.298 72.3382C49.618 71.9435 49.778 71.4208 49.778 70.7702C49.778 70.1088 49.6127 69.6075 49.282 69.2662C48.962 68.9142 48.4874 68.7382 47.858 68.7382C47.41 68.7382 47.0367 68.8502 46.738 69.0742C46.4394 69.2982 46.226 69.5968 46.098 69.9702H43.954V63.1222H51.186V65.0902ZM56.3469 72.4662L54.4749 76.9622H53.0349L54.0749 72.4662H56.3469ZM63.7534 66.0662C63.6468 65.6182 63.4601 65.2822 63.1934 65.0582C62.9374 64.8342 62.5641 64.7222 62.0734 64.7222C61.3374 64.7222 60.7934 65.0208 60.4414 65.6182C60.1001 66.2048 59.9241 67.1648 59.9134 68.4982C60.1694 68.0715 60.5428 67.7408 61.0334 67.5062C61.5241 67.2608 62.0574 67.1382 62.6334 67.1382C63.3268 67.1382 63.9401 67.2875 64.4734 67.5862C65.0068 67.8848 65.4228 68.3222 65.7214 68.8982C66.0201 69.4635 66.1694 70.1462 66.1694 70.9462C66.1694 71.7035 66.0148 72.3808 65.7054 72.9782C65.4068 73.5648 64.9641 74.0235 64.3774 74.3542C63.7908 74.6848 63.0921 74.8502 62.2814 74.8502C61.1721 74.8502 60.2974 74.6048 59.6574 74.1142C59.0281 73.6235 58.5854 72.9408 58.3294 72.0662C58.0841 71.1808 57.9614 70.0928 57.9614 68.8022C57.9614 66.8502 58.2974 65.3782 58.9694 64.3862C59.6414 63.3835 60.7028 62.8822 62.1534 62.8822C63.2734 62.8822 64.1428 63.1862 64.7614 63.7942C65.3801 64.4022 65.7374 65.1595 65.8334 66.0662H63.7534ZM62.1214 68.9782C61.5561 68.9782 61.0814 69.1435 60.6974 69.4742C60.3134 69.8048 60.1214 70.2848 60.1214 70.9142C60.1214 71.5435 60.2974 72.0395 60.6494 72.4022C61.0121 72.7648 61.5188 72.9462 62.1694 72.9462C62.7454 72.9462 63.1988 72.7702 63.5294 72.4182C63.8708 72.0662 64.0414 71.5915 64.0414 70.9942C64.0414 70.3755 63.8761 69.8848 63.5454 69.5222C63.2254 69.1595 62.7508 68.9782 62.1214 68.9782ZM73.9878 66.0662C73.8811 65.6182 73.6945 65.2822 73.4278 65.0582C73.1718 64.8342 72.7985 64.7222 72.3078 64.7222C71.5718 64.7222 71.0278 65.0208 70.6758 65.6182C70.3345 66.2048 70.1585 67.1648 70.1478 68.4982C70.4038 68.0715 70.7771 67.7408 71.2678 67.5062C71.7585 67.2608 72.2918 67.1382 72.8678 67.1382C73.5611 67.1382 74.1745 67.2875 74.7078 67.5862C75.2411 67.8848 75.6571 68.3222 75.9558 68.8982C76.2545 69.4635 76.4038 70.1462 76.4038 70.9462C76.4038 71.7035 76.2491 72.3808 75.9398 72.9782C75.6411 73.5648 75.1985 74.0235 74.6118 74.3542C74.0251 74.6848 73.3265 74.8502 72.5158 74.8502C71.4065 74.8502 70.5318 74.6048 69.8918 74.1142C69.2625 73.6235 68.8198 72.9408 68.5638 72.0662C68.3185 71.1808 68.1958 70.0928 68.1958 68.8022C68.1958 66.8502 68.5318 65.3782 69.2038 64.3862C69.8758 63.3835 70.9371 62.8822 72.3878 62.8822C73.5078 62.8822 74.3771 63.1862 74.9958 63.7942C75.6145 64.4022 75.9718 65.1595 76.0678 66.0662H73.9878ZM72.3558 68.9782C71.7905 68.9782 71.3158 69.1435 70.9318 69.4742C70.5478 69.8048 70.3558 70.2848 70.3558 70.9142C70.3558 71.5435 70.5318 72.0395 70.8838 72.4022C71.2465 72.7648 71.7531 72.9462 72.4038 72.9462C72.9798 72.9462 73.4331 72.7702 73.7638 72.4182C74.1051 72.0662 74.2758 71.5915 74.2758 70.9942C74.2758 70.3755 74.1105 69.8848 73.7798 69.5222C73.4598 69.1595 72.9851 68.9782 72.3558 68.9782ZM78.8782 72.2902C79.9022 71.4368 80.7182 70.7275 81.3262 70.1622C81.9342 69.5862 82.4408 68.9888 82.8462 68.3702C83.2515 67.7515 83.4542 67.1435 83.4542 66.5462C83.4542 66.0022 83.3262 65.5755 83.0702 65.2662C82.8142 64.9568 82.4195 64.8022 81.8862 64.8022C81.3528 64.8022 80.9422 64.9835 80.6542 65.3462C80.3662 65.6982 80.2168 66.1835 80.2062 66.8022H78.0302C78.0728 65.5222 78.4515 64.5515 79.1662 63.8902C79.8915 63.2288 80.8088 62.8982 81.9182 62.8982C83.1342 62.8982 84.0675 63.2235 84.7182 63.8742C85.3688 64.5142 85.6942 65.3622 85.6942 66.4182C85.6942 67.2502 85.4702 68.0448 85.0222 68.8022C84.5742 69.5595 84.0622 70.2208 83.4862 70.7862C82.9102 71.3408 82.1582 72.0128 81.2302 72.8022H85.9502V74.6582H78.0462V72.9942L78.8782 72.2902Z" fill="white"/>
<path d="M21.8961 42.812C21.8961 41.996 22.0841 41.264 22.4601 40.616C22.8441 39.968 23.3601 39.464 24.0081 39.104C24.6641 38.736 25.3801 38.552 26.1561 38.552C27.0441 38.552 27.8321 38.772 28.5201 39.212C29.2161 39.644 29.7201 40.26 30.0321 41.06H28.3881C28.1721 40.62 27.8721 40.292 27.4881 40.076C27.1041 39.86 26.6601 39.752 26.1561 39.752C25.6041 39.752 25.1121 39.876 24.6801 40.124C24.2481 40.372 23.9081 40.728 23.6601 41.192C23.4201 41.656 23.3001 42.196 23.3001 42.812C23.3001 43.428 23.4201 43.968 23.6601 44.432C23.9081 44.896 24.2481 45.256 24.6801 45.512C25.1121 45.76 25.6041 45.884 26.1561 45.884C26.6601 45.884 27.1041 45.776 27.4881 45.56C27.8721 45.344 28.1721 45.016 28.3881 44.576H30.0321C29.7201 45.376 29.2161 45.992 28.5201 46.424C27.8321 46.856 27.0441 47.072 26.1561 47.072C25.3721 47.072 24.6561 46.892 24.0081 46.532C23.3601 46.164 22.8441 45.656 22.4601 45.008C22.0841 44.36 21.8961 43.628 21.8961 42.812ZM33.0014 41.348C33.2014 41.012 33.4654 40.752 33.7934 40.568C34.1294 40.376 34.5254 40.28 34.9814 40.28V41.696H34.6334C34.0974 41.696 33.6894 41.832 33.4094 42.104C33.1374 42.376 33.0014 42.848 33.0014 43.52V47H31.6334V40.388H33.0014V41.348ZM42.2989 43.532C42.2989 43.78 42.2829 44.004 42.2509 44.204H37.1989C37.2389 44.732 37.4349 45.156 37.7869 45.476C38.1389 45.796 38.5709 45.956 39.0829 45.956C39.8189 45.956 40.3389 45.648 40.6429 45.032H42.1189C41.9189 45.64 41.5549 46.14 41.0269 46.532C40.5069 46.916 39.8589 47.108 39.0829 47.108C38.4509 47.108 37.8829 46.968 37.3789 46.688C36.8829 46.4 36.4909 46 36.2029 45.488C35.9229 44.968 35.7829 44.368 35.7829 43.688C35.7829 43.008 35.9189 42.412 36.1909 41.9C36.4709 41.38 36.8589 40.98 37.3549 40.7C37.8589 40.42 38.4349 40.28 39.0829 40.28C39.7069 40.28 40.2629 40.416 40.7509 40.688C41.2389 40.96 41.6189 41.344 41.8909 41.84C42.1629 42.328 42.2989 42.892 42.2989 43.532ZM40.8709 43.1C40.8629 42.596 40.6829 42.192 40.3309 41.888C39.9789 41.584 39.5429 41.432 39.0229 41.432C38.5509 41.432 38.1469 41.584 37.8109 41.888C37.4749 42.184 37.2749 42.588 37.2109 43.1H40.8709ZM43.1891 43.664C43.1891 43 43.3251 42.412 43.5971 41.9C43.8771 41.388 44.2531 40.992 44.7251 40.712C45.2051 40.424 45.7371 40.28 46.3211 40.28C46.7531 40.28 47.1771 40.376 47.5931 40.568C48.0171 40.752 48.3531 41 48.6011 41.312V38.12H49.9811V47H48.6011V46.004C48.3771 46.324 48.0651 46.588 47.6651 46.796C47.2731 47.004 46.8211 47.108 46.3091 47.108C45.7331 47.108 45.2051 46.964 44.7251 46.676C44.2531 46.38 43.8771 45.972 43.5971 45.452C43.3251 44.924 43.1891 44.328 43.1891 43.664ZM48.6011 43.688C48.6011 43.232 48.5051 42.836 48.3131 42.5C48.1291 42.164 47.8851 41.908 47.5811 41.732C47.2771 41.556 46.9491 41.468 46.5971 41.468C46.2451 41.468 45.9171 41.556 45.6131 41.732C45.3091 41.9 45.0611 42.152 44.8691 42.488C44.6851 42.816 44.5931 43.208 44.5931 43.664C44.5931 44.12 44.6851 44.52 44.8691 44.864C45.0611 45.208 45.3091 45.472 45.6131 45.656C45.9251 45.832 46.2531 45.92 46.5971 45.92C46.9491 45.92 47.2771 45.832 47.5811 45.656C47.8851 45.48 48.1291 45.224 48.3131 44.888C48.5051 44.544 48.6011 44.144 48.6011 43.688ZM52.4739 39.512C52.2259 39.512 52.0179 39.428 51.8499 39.26C51.6819 39.092 51.5979 38.884 51.5979 38.636C51.5979 38.388 51.6819 38.18 51.8499 38.012C52.0179 37.844 52.2259 37.76 52.4739 37.76C52.7139 37.76 52.9179 37.844 53.0859 38.012C53.2539 38.18 53.3379 38.388 53.3379 38.636C53.3379 38.884 53.2539 39.092 53.0859 39.26C52.9179 39.428 52.7139 39.512 52.4739 39.512ZM53.1459 40.388V47H51.7779V40.388H53.1459ZM56.538 41.504V45.164C56.538 45.412 56.594 45.592 56.706 45.704C56.826 45.808 57.026 45.86 57.306 45.86H58.146V47H57.066C56.45 47 55.978 46.856 55.65 46.568C55.322 46.28 55.158 45.812 55.158 45.164V41.504H54.378V40.388H55.158V38.744H56.538V40.388H58.146V41.504H56.538ZM62.068 42.812C62.068 41.996 62.256 41.264 62.632 40.616C63.016 39.968 63.532 39.464 64.18 39.104C64.836 38.736 65.552 38.552 66.328 38.552C67.216 38.552 68.004 38.772 68.692 39.212C69.388 39.644 69.892 40.26 70.204 41.06H68.56C68.344 40.62 68.044 40.292 67.66 40.076C67.276 39.86 66.832 39.752 66.328 39.752C65.776 39.752 65.284 39.876 64.852 40.124C64.42 40.372 64.08 40.728 63.832 41.192C63.592 41.656 63.472 42.196 63.472 42.812C63.472 43.428 63.592 43.968 63.832 44.432C64.08 44.896 64.42 45.256 64.852 45.512C65.284 45.76 65.776 45.884 66.328 45.884C66.832 45.884 67.276 45.776 67.66 45.56C68.044 45.344 68.344 45.016 68.56 44.576H70.204C69.892 45.376 69.388 45.992 68.692 46.424C68.004 46.856 67.216 47.072 66.328 47.072C65.544 47.072 64.828 46.892 64.18 46.532C63.532 46.164 63.016 45.656 62.632 45.008C62.256 44.36 62.068 43.628 62.068 42.812ZM71.3493 43.664C71.3493 43 71.4853 42.412 71.7573 41.9C72.0373 41.388 72.4133 40.992 72.8853 40.712C73.3653 40.424 73.8933 40.28 74.4693 40.28C74.9893 40.28 75.4413 40.384 75.8253 40.592C76.2173 40.792 76.5293 41.044 76.7613 41.348V40.388H78.1413V47H76.7613V46.016C76.5293 46.328 76.2133 46.588 75.8133 46.796C75.4133 47.004 74.9573 47.108 74.4453 47.108C73.8773 47.108 73.3573 46.964 72.8853 46.676C72.4133 46.38 72.0373 45.972 71.7573 45.452C71.4853 44.924 71.3493 44.328 71.3493 43.664ZM76.7613 43.688C76.7613 43.232 76.6653 42.836 76.4733 42.5C76.2893 42.164 76.0453 41.908 75.7413 41.732C75.4373 41.556 75.1093 41.468 74.7573 41.468C74.4053 41.468 74.0773 41.556 73.7733 41.732C73.4693 41.9 73.2213 42.152 73.0293 42.488C72.8453 42.816 72.7533 43.208 72.7533 43.664C72.7533 44.12 72.8453 44.52 73.0293 44.864C73.2213 45.208 73.4693 45.472 73.7733 45.656C74.0853 45.832 74.4133 45.92 74.7573 45.92C75.1093 45.92 75.4373 45.832 75.7413 45.656C76.0453 45.48 76.2893 45.224 76.4733 44.888C76.6653 44.544 76.7613 44.144 76.7613 43.688ZM81.3061 41.348C81.5061 41.012 81.7701 40.752 82.0981 40.568C82.4341 40.376 82.8301 40.28 83.2861 40.28V41.696H82.9381C82.4021 41.696 81.9941 41.832 81.7141 42.104C81.4421 42.376 81.3061 42.848 81.3061 43.52V47H79.9381V40.388H81.3061V41.348ZM84.0876 43.664C84.0876 43 84.2236 42.412 84.4956 41.9C84.7756 41.388 85.1516 40.992 85.6236 40.712C86.1036 40.424 86.6356 40.28 87.2196 40.28C87.6516 40.28 88.0756 40.376 88.4916 40.568C88.9156 40.752 89.2516 41 89.4996 41.312V38.12H90.8796V47H89.4996V46.004C89.2756 46.324 88.9636 46.588 88.5636 46.796C88.1716 47.004 87.7196 47.108 87.2076 47.108C86.6316 47.108 86.1036 46.964 85.6236 46.676C85.1516 46.38 84.7756 45.972 84.4956 45.452C84.2236 44.924 84.0876 44.328 84.0876 43.664ZM89.4996 43.688C89.4996 43.232 89.4036 42.836 89.2116 42.5C89.0276 42.164 88.7836 41.908 88.4796 41.732C88.1756 41.556 87.8476 41.468 87.4956 41.468C87.1436 41.468 86.8156 41.556 86.5116 41.732C86.2076 41.9 85.9596 42.152 85.7676 42.488C85.5836 42.816 85.4916 43.208 85.4916 43.664C85.4916 44.12 85.5836 44.52 85.7676 44.864C85.9596 45.208 86.2076 45.472 86.5116 45.656C86.8236 45.832 87.1516 45.92 87.4956 45.92C87.8476 45.92 88.1756 45.832 88.4796 45.656C88.7836 45.48 89.0276 45.224 89.2116 44.888C89.4036 44.544 89.4996 44.144 89.4996 43.688Z" fill="white"/>
<path d="M27.57 108.494L28.2 109.614L26.282 110.328L28.2 111.042L27.556 112.19L25.96 110.93L26.254 112.96H24.966L25.232 110.93L23.636 112.218L22.964 111.028L24.868 110.314L22.964 109.628L23.608 108.48L25.246 109.74L24.966 107.696H26.268L25.96 109.74L27.57 108.494ZM34.6247 108.494L35.2547 109.614L33.3367 110.328L35.2547 111.042L34.6107 112.19L33.0147 110.93L33.3087 112.96H32.0207L32.2867 110.93L30.6907 112.218L30.0187 111.028L31.9227 110.314L30.0187 109.628L30.6627 108.48L32.3007 109.74L32.0207 107.696H33.3227L33.0147 109.74L34.6247 108.494ZM41.6794 108.494L42.3094 109.614L40.3914 110.328L42.3094 111.042L41.6654 112.19L40.0694 110.93L40.3634 112.96H39.0754L39.3414 110.93L37.7454 112.218L37.0734 111.028L38.9774 110.314L37.0734 109.628L37.7174 108.48L39.3554 109.74L39.0754 107.696H40.3774L40.0694 109.74L41.6794 108.494ZM48.7341 108.494L49.3641 109.614L47.4461 110.328L49.3641 111.042L48.7201 112.19L47.1241 110.93L47.4181 112.96H46.1301L46.3961 110.93L44.8001 112.218L44.1281 111.028L46.0321 110.314L44.1281 109.628L44.7721 108.48L46.4101 109.74L46.1301 107.696H47.4321L47.1241 109.74L48.7341 108.494ZM59.4255 108.494L60.0555 109.614L58.1375 110.328L60.0555 111.042L59.4115 112.19L57.8155 110.93L58.1095 112.96H56.8215L57.0875 110.93L55.4915 112.218L54.8195 111.028L56.7235 110.314L54.8195 109.628L55.4635 108.48L57.1015 109.74L56.8215 107.696H58.1235L57.8155 109.74L59.4255 108.494ZM66.4802 108.494L67.1102 109.614L65.1922 110.328L67.1102 111.042L66.4662 112.19L64.8702 110.93L65.1642 112.96H63.8762L64.1422 110.93L62.5462 112.218L61.8742 111.028L63.7782 110.314L61.8742 109.628L62.5182 108.48L64.1562 109.74L63.8762 107.696H65.1782L64.8702 109.74L66.4802 108.494ZM73.5349 108.494L74.1649 109.614L72.2469 110.328L74.1649 111.042L73.5209 112.19L71.9249 110.93L72.2189 112.96H70.9309L71.1969 110.93L69.6009 112.218L68.9289 111.028L70.8329 110.314L68.9289 109.628L69.5729 108.48L71.2109 109.74L70.9309 107.696H72.2329L71.9249 109.74L73.5349 108.494ZM80.5896 108.494L81.2196 109.614L79.3016 110.328L81.2196 111.042L80.5756 112.19L78.9796 110.93L79.2736 112.96H77.9856L78.2516 110.93L76.6556 112.218L75.9836 111.028L77.8876 110.314L75.9836 109.628L76.6276 108.48L78.2656 109.74L77.9856 107.696H79.2876L78.9796 109.74L80.5896 108.494ZM91.281 108.494L91.911 109.614L89.993 110.328L91.911 111.042L91.267 112.19L89.671 110.93L89.965 112.96H88.677L88.943 110.93L87.347 112.218L86.675 111.028L88.579 110.314L86.675 109.628L87.319 108.48L88.957 109.74L88.677 107.696H89.979L89.671 109.74L91.281 108.494ZM98.3357 108.494L98.9657 109.614L97.0477 110.328L98.9657 111.042L98.3217 112.19L96.7257 110.93L97.0197 112.96H95.7317L95.9977 110.93L94.4017 112.218L93.7297 111.028L95.6337 110.314L93.7297 109.628L94.3737 108.48L96.0117 109.74L95.7317 107.696H97.0337L96.7257 109.74L98.3357 108.494ZM105.39 108.494L106.02 109.614L104.102 110.328L106.02 111.042L105.376 112.19L103.78 110.93L104.074 112.96H102.786L103.052 110.93L101.456 112.218L100.784 111.028L102.688 110.314L100.784 109.628L101.428 108.48L103.066 109.74L102.786 107.696H104.088L103.78 109.74L105.39 108.494ZM112.445 108.494L113.075 109.614L111.157 110.328L113.075 111.042L112.431 112.19L110.835 110.93L111.129 112.96H109.841L110.107 110.93L108.511 112.218L107.839 111.028L109.743 110.314L107.839 109.628L108.483 108.48L110.121 109.74L109.841 107.696H111.143L110.835 109.74L112.445 108.494ZM118.278 109.25V107.794H121.19V118H119.58V109.25H118.278ZM124.265 115.83C125.161 115.055 125.866 114.421 126.379 113.926C126.902 113.422 127.336 112.899 127.681 112.358C128.026 111.817 128.199 111.275 128.199 110.734C128.199 110.174 128.064 109.735 127.793 109.418C127.532 109.101 127.116 108.942 126.547 108.942C125.996 108.942 125.567 109.119 125.259 109.474C124.96 109.819 124.802 110.286 124.783 110.874H123.243C123.271 109.81 123.588 108.998 124.195 108.438C124.811 107.869 125.59 107.584 126.533 107.584C127.55 107.584 128.344 107.864 128.913 108.424C129.492 108.984 129.781 109.731 129.781 110.664C129.781 111.336 129.608 111.985 129.263 112.61C128.927 113.226 128.521 113.781 128.045 114.276C127.578 114.761 126.981 115.326 126.253 115.97L125.623 116.53H130.061V117.86H123.257V116.698L124.265 115.83ZM131.435 110.314C131.491 109.446 131.822 108.769 132.429 108.284C133.045 107.799 133.829 107.556 134.781 107.556C135.434 107.556 135.999 107.673 136.475 107.906C136.951 108.139 137.31 108.457 137.553 108.858C137.796 109.259 137.917 109.712 137.917 110.216C137.917 110.795 137.763 111.289 137.455 111.7C137.147 112.111 136.778 112.386 136.349 112.526V112.582C136.9 112.75 137.329 113.058 137.637 113.506C137.945 113.945 138.099 114.509 138.099 115.2C138.099 115.751 137.973 116.241 137.721 116.67C137.469 117.099 137.096 117.44 136.601 117.692C136.106 117.935 135.514 118.056 134.823 118.056C133.815 118.056 132.984 117.799 132.331 117.286C131.687 116.763 131.342 116.017 131.295 115.046H132.835C132.872 115.541 133.064 115.947 133.409 116.264C133.754 116.572 134.221 116.726 134.809 116.726C135.378 116.726 135.817 116.572 136.125 116.264C136.433 115.947 136.587 115.541 136.587 115.046C136.587 114.393 136.377 113.931 135.957 113.66C135.546 113.38 134.912 113.24 134.053 113.24H133.689V111.924H134.067C134.823 111.915 135.397 111.789 135.789 111.546C136.19 111.303 136.391 110.921 136.391 110.398C136.391 109.95 136.246 109.595 135.957 109.334C135.668 109.063 135.257 108.928 134.725 108.928C134.202 108.928 133.796 109.063 133.507 109.334C133.218 109.595 133.045 109.922 132.989 110.314H131.435ZM139.58 115.872V114.668L144.284 107.92H146.216V114.486H147.518V115.872H146.216V118H144.648V115.872H139.58ZM144.718 109.544L141.414 114.486H144.718V109.544Z" fill="white"/>
</svg>
